<?xml version="1.0" encoding="UTF-8"?>
<svg id="uuid-716653a6-38db-4616-a8fb-4a15a5b201fb" data-name="Layer 2" xmlns="http://www.w3.org/2000/svg" viewBox="0 0 220.04 220.04">
  <defs>
    <style>
      .uuid-33719ce5-6af6-4a41-be27-685aae2bca0d {
        fill: #1f3338;
      }

      .uuid-33719ce5-6af6-4a41-be27-685aae2bca0d, .uuid-6a6b291a-afb0-46a1-83bf-ed9b7b3e11dd {
        stroke-width: 0px;
      }

      .uuid-6a6b291a-afb0-46a1-83bf-ed9b7b3e11dd {
        fill: #8cff05;
      }
    </style>
  </defs>
  <g id="uuid-66a750ad-f4ee-4bf4-8f0e-f4166ea85d69" data-name="Layer 1">
    <g>
      <rect class="uuid-6a6b291a-afb0-46a1-83bf-ed9b7b3e11dd" width="220.04" height="220.04"/>
      <g>
        <rect class="uuid-33719ce5-6af6-4a41-be27-685aae2bca0d" x="22.59" y="22.59" width="20.07" height="26.1"/>
        <path class="uuid-33719ce5-6af6-4a41-be27-685aae2bca0d" d="M148.32,54.02v16.05h33.14v16.97h-47.91v-48.4h63.91v-16.05h-62.74c-9.84,0-17.83,7.98-17.83,17.83v44.85c0,9.84,7.98,17.83,17.83,17.83h62.79v-49.08h-49.2Z"/>
        <path class="uuid-33719ce5-6af6-4a41-be27-685aae2bca0d" d="M22.54,134.69v44.85c0,9.84,7.98,17.83,17.83,17.83h62.74v-16.05h-63.91v-48.4h46.1v16.97h-31.33v16.05h49.2v-49.08h-62.79c-9.84,0-17.83,7.98-17.83,17.83Z"/>
        <rect class="uuid-33719ce5-6af6-4a41-be27-685aae2bca0d" x="22.59" y="76.99" width="20.07" height="26.1"/>
        <rect class="uuid-33719ce5-6af6-4a41-be27-685aae2bca0d" x="116.9" y="165.94" width="20.07" height="31.42"/>
        <rect class="uuid-33719ce5-6af6-4a41-be27-685aae2bca0d" x="177.45" y="116.86" width="20.07" height="31.42"/>
        <polygon class="uuid-33719ce5-6af6-4a41-be27-685aae2bca0d" points="43.83 62.84 89.52 103.11 103.16 103.11 103.16 89.47 72.91 62.84 103.16 36.21 103.16 22.59 89.52 22.58 43.83 62.84"/>
        <polygon class="uuid-33719ce5-6af6-4a41-be27-685aae2bca0d" points="116.93 116.86 116.93 131.1 183.2 197.38 197.45 197.38 197.45 183.14 131.17 116.86 116.93 116.86"/>
      </g>
    </g>
  </g>
</svg>